<svg width="22" height="19" viewBox="0 0 22 19" fill="none" xmlns="http://www.w3.org/2000/svg">
<path d="M8.99703 9.71952L16.3369 2.96971C16.5764 2.74205 16.8597 2.56341 17.1703 2.44418C17.4809 2.32495 17.8125 2.26752 18.146 2.27522C18.4795 2.28293 18.808 2.35563 19.1126 2.48908C19.4171 2.62253 19.6915 2.81406 19.9199 3.05253C20.1482 3.291 20.3258 3.57163 20.4425 3.87808C20.5591 4.18453 20.6124 4.51068 20.5993 4.83752C20.5862 5.16437 20.5068 5.48538 20.366 5.78186C20.2251 6.07834 20.0254 6.34437 19.7787 6.56445L12.4471 13.3318" stroke="#484848" stroke-width="1.6" stroke-linecap="round" stroke-linejoin="round"/>
<path d="M6.43285 11.4178C5.04554 11.3749 3.88762 12.5256 3.84056 13.9919C3.80308 15.1597 1.7084 15.2619 2.11218 15.7139C2.98377 16.7076 4.13622 17.5518 5.39818 17.5908C7.23678 17.6476 8.79182 16.1137 8.85494 14.1469C8.86718 13.7999 8.81424 13.454 8.69914 13.1291C8.58404 12.8041 8.40904 12.5064 8.18413 12.253C7.95921 11.9996 7.6888 11.7954 7.38831 11.6521C7.08783 11.5088 6.76316 11.4292 6.43285 11.4178V11.4178Z" stroke="#484848" stroke-width="1.6" stroke-linecap="round" stroke-linejoin="round"/>
</svg>
