<svg width="8" height="8" viewBox="0 0 8 8" fill="none" xmlns="http://www.w3.org/2000/svg">
<g clip-path="url(#clip0_303_1142)">
<path d="M4.73293 4.00785L7.84797 0.892717C8.05069 0.69009 8.05069 0.36247 7.84797 0.159844C7.64534 -0.0427832 7.31772 -0.0427832 7.1151 0.159844L3.99996 3.27498L0.884915 0.159844C0.682193 -0.0427832 0.354668 -0.0427832 0.152041 0.159844C-0.0506804 0.36247 -0.0506804 0.69009 0.152041 0.892717L3.26709 4.00785L0.152041 7.12299C-0.0506804 7.32562 -0.0506804 7.65324 0.152041 7.85586C0.253023 7.95694 0.385798 8.00772 0.518478 8.00772C0.651158 8.00772 0.783839 7.95694 0.884915 7.85586L3.99996 4.74073L7.1151 7.85586C7.21617 7.95694 7.34885 8.00772 7.48153 8.00772C7.61421 8.00772 7.74689 7.95694 7.84797 7.85586C8.05069 7.65324 8.05069 7.32562 7.84797 7.12299L4.73293 4.00785Z" fill="#5B6E87"/>
</g>
<defs>
<clipPath id="clip0_303_1142">
<rect width="8" height="8" fill="white"/>
</clipPath>
</defs>
</svg>
