<svg width="17" height="16" viewBox="0 0 17 16" fill="none" xmlns="http://www.w3.org/2000/svg">
<g clip-path="url(#clip0_314_53)">
<path d="M12.2678 9.16086L15.3847 5.7983L12.2678 2.43574C12.016 2.1637 12.0453 1.75061 12.334 1.51302C12.6226 1.27564 13.0607 1.30355 13.313 1.57536L16.8286 5.3682C17.0571 5.61452 17.0571 5.98227 16.8286 6.22858L13.313 10.0215C13.1756 10.1692 12.9834 10.2451 12.7901 10.2451C12.6282 10.2451 12.4656 10.1919 12.334 10.0836C12.0453 9.84599 12.0157 9.43289 12.2678 9.16086Z" fill="#B5B5B5"/>
<path d="M5.06548 5.14435H16.3061C16.6894 5.14435 17 5.43707 17 5.79829C17 6.15947 16.6894 6.45222 16.3061 6.45222H5.06548C3.05027 6.45222 1.41088 7.99725 1.41088 9.89632C1.41088 11.7954 3.05027 13.3404 5.06548 13.3404H15.381C15.7642 13.3404 16.0748 13.6332 16.0748 13.9943C16.0748 14.3555 15.7642 14.6483 15.381 14.6483H5.06548C2.28539 14.6483 0.0231552 12.5164 0.0231552 9.89632C0.0231552 7.27619 2.28515 5.14435 5.06548 5.14435Z" fill="#B5B5B5"/>
</g>
<defs>
<clipPath id="clip0_314_53">
<rect width="16.9768" height="16" fill="white" transform="matrix(-1 0 0 1 17 0)"/>
</clipPath>
</defs>
</svg>
