<svg width="18" height="18" viewBox="0 0 18 18" fill="none" xmlns="http://www.w3.org/2000/svg">
<g clip-path="url(#clip0_314_37)">
<path d="M15.4084 0H2.10938C0.946266 0 0 0.946266 0 2.10938V15.8906C0 17.0537 0.946266 18 2.10938 18H15.8906C17.0537 18 18 17.0537 18 15.8906V2.59158L15.4084 0ZM4.21875 1.40625H12.3047V5.55469H4.21875V1.40625ZM13.7812 16.5938H4.21875V11.0391H13.7812V16.5938ZM16.5938 15.8906C16.5938 16.2783 16.2783 16.5938 15.8906 16.5938H15.1875V9.63281H2.8125V16.5938H2.10938C1.72167 16.5938 1.40625 16.2783 1.40625 15.8906V2.10938C1.40625 1.72167 1.72167 1.40625 2.10938 1.40625H2.8125V6.96094H13.7109V1.40625H14.826L16.5938 3.17405V15.8906Z" fill="#484848"/>
<path d="M11.0391 2.07422H9.63281V4.85156H11.0391V2.07422Z" fill="#484848"/>
</g>
<defs>
<clipPath id="clip0_314_37">
<rect width="18" height="18" fill="white"/>
</clipPath>
</defs>
</svg>
