<svg width="17" height="16" viewBox="0 0 17 16" fill="none" xmlns="http://www.w3.org/2000/svg">
<g clip-path="url(#clip0_314_45)">
<path d="M4.73216 9.16086L1.61532 5.7983L4.73216 2.43574C4.98403 2.1637 4.95465 1.75061 4.66601 1.51302C4.37737 1.27564 3.93929 1.30355 3.68696 1.57536L0.171393 5.3682C-0.0571311 5.61452 -0.0571311 5.98227 0.171393 6.22858L3.68699 10.0215C3.82437 10.1692 4.01658 10.2451 4.20993 10.2451C4.37184 10.2451 4.53441 10.1919 4.66601 10.0836C4.95469 9.84599 4.98426 9.43289 4.73216 9.16086Z" fill="#B5B5B5"/>
<path d="M11.9345 5.14435H0.693862C0.310623 5.14435 0 5.43707 0 5.79829C0 6.15947 0.310623 6.45222 0.693862 6.45222H11.9345C13.9497 6.45222 15.5891 7.99725 15.5891 9.89632C15.5891 11.7954 13.9497 13.3404 11.9345 13.3404H1.61903C1.23579 13.3404 0.925172 13.6332 0.925172 13.9943C0.925172 14.3555 1.23579 14.6483 1.61903 14.6483H11.9345C14.7146 14.6483 16.9768 12.5164 16.9768 9.89632C16.9768 7.27619 14.7148 5.14435 11.9345 5.14435Z" fill="#B5B5B5"/>
</g>
<defs>
<clipPath id="clip0_314_45">
<rect width="16.9768" height="16" fill="white"/>
</clipPath>
</defs>
</svg>
